<?xml version="1.0" standalone="no"?>
<!DOCTYPE svg PUBLIC "-//W3C//DTD SVG 20010904//EN"
 "http://www.w3.org/TR/2001/REC-SVG-20010904/DTD/svg10.dtd">
<svg version="1.0" xmlns="http://www.w3.org/2000/svg"
 width="1024.000000pt" height="1024.000000pt" viewBox="0 0 1024.000000 1024.000000"
 preserveAspectRatio="xMidYMid meet">
<metadata>
Created by potrace 1.14, written by Peter Selinger 2001-2017
</metadata>
<g transform="translate(0.000000,1024.000000) scale(0.100000,-0.100000)"
fill="#000000" stroke="none">
<path d="M0 5120 l0 -5120 5120 0 5120 0 0 5120 0 5120 -5120 0 -5120 0 0
-5120z m10230 495 c0 -2538 -2 -4615 -5 -4615 -3 0 -40 10 -82 22 -43 12 -276
71 -518 132 -404 102 -440 113 -443 133 -3 21 -5 21 -40 9 -20 -7 -41 -12 -47
-10 -5 1 -22 5 -37 8 -25 6 -28 11 -28 50 0 42 -2 44 -34 50 -18 4 -46 2 -60
-4 -38 -14 -46 -13 -46 8 0 15 -19 23 -102 45 -57 14 -122 31 -145 37 l-41 12
-82 -62 c-509 -388 -1302 -654 -2245 -754 -508 -54 -1172 -46 -1655 19 -1334
182 -2409 855 -3035 1899 -332 554 -540 1208 -620 1951 -33 301 -31 972 4
1263 4 35 4 65 -1 68 -4 3 -8 60 -8 127 0 133 -1 135 -67 210 -33 37 -33 38
-33 136 l0 99 81 76 81 75 -31 43 c-26 35 -31 51 -31 100 l0 57 77 43 c43 24
87 48 98 53 32 17 31 60 -4 104 -17 21 -31 41 -31 43 0 2 38 22 85 43 56 26
81 43 75 49 -6 6 -10 36 -10 67 l0 57 51 18 c44 16 54 25 74 65 21 41 22 48 9
67 -13 19 -12 21 8 24 15 2 33 23 59 68 20 36 62 111 93 168 324 581 822 1082
1403 1411 190 108 544 263 711 312 23 7 42 15 42 19 0 5 29 14 65 21 l65 13 0
37 0 37 64 12 c65 12 65 12 68 49 2 30 7 37 28 39 14 2 42 8 62 13 32 8 37 14
40 41 3 34 6 35 91 53 25 5 27 9 22 38 l-6 33 65 13 c62 12 83 29 56 46 -28
17 -6 34 60 46 54 9 70 16 65 27 -18 47 -17 62 3 62 11 0 42 5 69 11 47 11 49
12 45 45 -4 35 0 38 103 59 28 5 31 9 27 39 l-4 33 81 18 c44 10 78 22 75 27
-3 4 1208 8 2690 8 l2696 0 0 -4615z"/>
</g>
</svg>
